# xmcd
#
# Track frame offsets:
#	150
#	15744
#	37665
#	55955
#
# Disc length: 1037 seconds
#
# Revision: 1
# Processed by: cddbd v1.5.2PL0 Copyright (c) Steve Scherf et al.
# Submitted via: audiograbber 1.83.01
#
DISCID=25040b04
DTITLE=Oliver Frank - Maxi-CD - 1000 mal vermisst
DYEAR=1900
DGENRE=Fox
TTITLE0=1000 mal vermisst (Fox, Single, 03)
TTITLE1=1000 mal vermisst (Fox, Maxi, 03)
TTITLE2=Warst mein Stern
TTITLE3=Schwerelos (Remix)
EXTD=www.Funsider.de
EXTT0=
EXTT1=
EXTT2=
EXTT3=
PLAYORDER=
